<?xml version="1.0" ?><!DOCTYPE svg  PUBLIC '-//W3C//DTD SVG 1.1//EN'  'http://www.w3.org/Graphics/SVG/1.1/DTD/svg11.dtd'><svg enable-background="new 0 0 32 32" height="32px" version="1.1" viewBox="0 0 32 32" width="32px" xml:space="preserve" xmlns="http://www.w3.org/2000/svg" xmlns:xlink="http://www.w3.org/1999/xlink"><g id="play"/><g id="stop"/><g id="pause"/><g id="replay"/><g id="next"/><g id="Layer_8"/><g id="search"/><g id="list"/><g id="love"/><g id="menu"><g><g><path d="M14,7c0,0.55,0.45,1,1,1h2c0.55,0,1-0.45,1-1V5c0-0.55-0.45-1-1-1h-2c-0.55,0-1,0.45-1,1V7z"/><path d="M17,9h-2c-1.103,0-2-0.897-2-2V5c0-1.103,0.897-2,2-2h2c1.103,0,2,0.897,2,2v2C19,8.103,18.103,9,17,9z M17,7v1V7L17,7     L17,7z M15,5v2h1.997L17,5H15z"/></g><g><path d="M14,17c0,0.55,0.45,1,1,1h2c0.55,0,1-0.45,1-1v-2c0-0.55-0.45-1-1-1h-2c-0.55,0-1,0.45-1,1V17z"/><path d="M17,19h-2c-1.103,0-2-0.897-2-2v-2c0-1.103,0.897-2,2-2h2c1.103,0,2,0.897,2,2v2C19,18.103,18.103,19,17,19z M17,17v1V17     L17,17L17,17z M15,15v2h1.997L17,15H15z"/></g><g><path d="M14,27c0,0.55,0.45,1,1,1h2c0.55,0,1-0.45,1-1v-2c0-0.55-0.45-1-1-1h-2c-0.55,0-1,0.45-1,1V27z"/><path d="M17,29h-2c-1.103,0-2-0.897-2-2v-2c0-1.103,0.897-2,2-2h2c1.103,0,2,0.897,2,2v2C19,28.103,18.103,29,17,29z M17,27v1V27     L17,27L17,27z M15,25v2h1.997L17,25H15z"/></g></g></g><g id="add"/><g id="headset"/><g id="random"/><g id="music"/><g id="setting"/><g id="Layer_17"/><g id="Layer_18"/><g id="Layer_19"/><g id="Layer_20"/><g id="Layer_21"/><g id="Layer_22"/><g id="Layer_23"/><g id="Layer_24"/><g id="Layer_25"/><g id="Layer_26"/></svg>