<?xml version="1.0" ?><!DOCTYPE svg  PUBLIC '-//W3C//DTD SVG 1.1//EN'  'http://www.w3.org/Graphics/SVG/1.1/DTD/svg11.dtd'><svg enable-background="new 0 0 32 32" height="32px" version="1.1" viewBox="0 0 32 32" width="32px" xml:space="preserve" xmlns="http://www.w3.org/2000/svg" xmlns:xlink="http://www.w3.org/1999/xlink"><g id="play"/><g id="stop"/><g id="pause"/><g id="replay"/><g id="next"/><g id="Layer_8"/><g id="search"/><g id="list"/><g id="love"/><g id="menu"/><g id="add"/><g id="headset"/><g id="random"><g><path d="M3.073,5.366    c6.115,0,11.071,4.761,11.071,10.634S9.188,26.634,3.073,26.634" fill="none" stroke="#231F20" stroke-linecap="round" stroke-miterlimit="10" stroke-width="2"/><path d="M23.614,5.366c-3.96,0-8.989,4.761-8.989,10.634    s6.07,10.634,8.989,10.634" fill="none" stroke="#231F20" stroke-miterlimit="10" stroke-width="2"/><g><path d="M24.725,3.682C24.221,3.464,24,3.735,24,4.285     v2.162c0,0.55,0.221,0.821,0.725,0.603l2.882-1.287c0.505-0.218,0.553-0.576,0.048-0.794L24.725,3.682z" fill="none" stroke="#231F20" stroke-miterlimit="10" stroke-width="2"/></g><g><path d="M24.725,24.95C24.221,24.732,24,25.004,24,25.554     v2.161c0,0.55,0.221,0.821,0.725,0.604l2.882-1.288c0.505-0.218,0.553-0.575,0.048-0.793L24.725,24.95z" fill="none" stroke="#231F20" stroke-miterlimit="10" stroke-width="2"/></g></g></g><g id="music"/><g id="setting"/><g id="Layer_17"/><g id="Layer_18"/><g id="Layer_19"/><g id="Layer_20"/><g id="Layer_21"/><g id="Layer_22"/><g id="Layer_23"/><g id="Layer_24"/><g id="Layer_25"/><g id="Layer_26"/></svg>